ISO-10303-21;
HEADER;
/* Generated by software containing ST-Developer
 * from STEP Tools, Inc. (www.steptools.com) 
 */

FILE_DESCRIPTION(
/* description */ (''),
/* implementation_level */ '2;1');

FILE_NAME(
/* name */ 'Case_IMU_Sensor v3.step',
/* time_stamp */ '2025-07-13T22:38:22+07:00',
/* author */ (''),
/* organization */ (''),
/* preprocessor_version */ 'ST-DEVELOPER v20.1',
/* originating_system */ 'Autodesk Translation Framework v14.10.0.0',
/* authorisation */ '');

FILE_SCHEMA (('AUTOMOTIVE_DESIGN { 1 0 10303 214 3 1 1 }'));
ENDSEC;

DATA;
#10=MECHANICAL_DESIGN_GEOMETRIC_PRESENTATION_REPRESENTATION('',(#13),#1057);
#11=SHAPE_REPRESENTATION_RELATIONSHIP('SRR','None',#1063,#12);
#12=ADVANCED_BREP_SHAPE_REPRESENTATION('',(#14),#1056);
#13=STYLED_ITEM('',(#1072),#14);
#14=MANIFOLD_SOLID_BREP('Bottom',#601);
#15=CYLINDRICAL_SURFACE('',#615,2.5);
#16=CYLINDRICAL_SURFACE('',#620,2.5);
#17=CYLINDRICAL_SURFACE('',#625,2.5);
#18=CYLINDRICAL_SURFACE('',#630,2.5);
#19=CYLINDRICAL_SURFACE('',#632,1.);
#20=CYLINDRICAL_SURFACE('',#636,1.);
#21=CYLINDRICAL_SURFACE('',#641,1.);
#22=CYLINDRICAL_SURFACE('',#646,1.);
#23=CYLINDRICAL_SURFACE('',#652,3.30000117300015);
#24=CYLINDRICAL_SURFACE('',#655,3.30000117298693);
#25=CYLINDRICAL_SURFACE('',#659,3.30000117298016);
#26=CYLINDRICAL_SURFACE('',#662,3.30000117298017);
#27=CYLINDRICAL_SURFACE('',#665,4.50000117300015);
#28=CYLINDRICAL_SURFACE('',#669,4.50000117298693);
#29=CYLINDRICAL_SURFACE('',#676,4.50000117298016);
#30=CYLINDRICAL_SURFACE('',#679,4.50000117298017);
#31=FACE_BOUND('',#180,.T.);
#32=FACE_BOUND('',#181,.T.);
#33=FACE_BOUND('',#182,.T.);
#34=FACE_BOUND('',#183,.T.);
#35=FACE_BOUND('',#193,.T.);
#36=FACE_BOUND('',#196,.T.);
#37=FACE_BOUND('',#200,.T.);
#38=FACE_BOUND('',#204,.T.);
#39=FACE_BOUND('',#225,.T.);
#40=LINE('',#894,#80);
#41=LINE('',#898,#81);
#42=LINE('',#902,#82);
#43=LINE('',#905,#83);
#44=LINE('',#915,#84);
#45=LINE('',#923,#85);
#46=LINE('',#931,#86);
#47=LINE('',#939,#87);
#48=LINE('',#944,#88);
#49=LINE('',#951,#89);
#50=LINE('',#959,#90);
#51=LINE('',#967,#91);
#52=LINE('',#974,#92);
#53=LINE('',#975,#93);
#54=LINE('',#976,#94);
#55=LINE('',#980,#95);
#56=LINE('',#983,#96);
#57=LINE('',#984,#97);
#58=LINE('',#988,#98);
#59=LINE('',#992,#99);
#60=LINE('',#993,#100);
#61=LINE('',#997,#101);
#62=LINE('',#1000,#102);
#63=LINE('',#1001,#103);
#64=LINE('',#1007,#104);
#65=LINE('',#1009,#105);
#66=LINE('',#1011,#106);
#67=LINE('',#1012,#107);
#68=LINE('',#1018,#108);
#69=LINE('',#1021,#109);
#70=LINE('',#1023,#110);
#71=LINE('',#1024,#111);
#72=LINE('',#1030,#112);
#73=LINE('',#1035,#113);
#74=LINE('',#1038,#114);
#75=LINE('',#1041,#115);
#76=LINE('',#1042,#116);
#77=LINE('',#1046,#117);
#78=LINE('',#1049,#118);
#79=LINE('',#1050,#119);
#80=VECTOR('',#696,10.);
#81=VECTOR('',#699,10.);
#82=VECTOR('',#702,10.);
#83=VECTOR('',#705,10.);
#84=VECTOR('',#716,2.5);
#85=VECTOR('',#727,2.5);
#86=VECTOR('',#738,2.5);
#87=VECTOR('',#749,2.5);
#88=VECTOR('',#754,1.);
#89=VECTOR('',#763,1.);
#90=VECTOR('',#774,1.);
#91=VECTOR('',#785,1.);
#92=VECTOR('',#794,10.);
#93=VECTOR('',#795,10.);
#94=VECTOR('',#796,10.);
#95=VECTOR('',#801,10.);
#96=VECTOR('',#804,10.);
#97=VECTOR('',#805,10.);
#98=VECTOR('',#810,10.);
#99=VECTOR('',#815,10.);
#100=VECTOR('',#816,10.);
#101=VECTOR('',#821,10.);
#102=VECTOR('',#824,10.);
#103=VECTOR('',#825,10.);
#104=VECTOR('',#832,10.);
#105=VECTOR('',#833,10.);
#106=VECTOR('',#834,10.);
#107=VECTOR('',#835,10.);
#108=VECTOR('',#842,10.);
#109=VECTOR('',#845,10.);
#110=VECTOR('',#846,10.);
#111=VECTOR('',#847,10.);
#112=VECTOR('',#854,10.);
#113=VECTOR('',#859,10.);
#114=VECTOR('',#862,10.);
#115=VECTOR('',#865,10.);
#116=VECTOR('',#866,10.);
#117=VECTOR('',#871,10.);
#118=VECTOR('',#874,10.);
#119=VECTOR('',#875,10.);
#120=PLANE('',#607);
#121=PLANE('',#635);
#122=PLANE('',#639);
#123=PLANE('',#640);
#124=PLANE('',#644);
#125=PLANE('',#645);
#126=PLANE('',#649);
#127=PLANE('',#650);
#128=PLANE('',#651);
#129=PLANE('',#654);
#130=PLANE('',#657);
#131=PLANE('',#658);
#132=PLANE('',#661);
#133=PLANE('',#664);
#134=PLANE('',#668);
#135=PLANE('',#672);
#136=PLANE('',#675);
#137=PLANE('',#678);
#138=PLANE('',#681);
#139=FACE_OUTER_BOUND('',#178,.T.);
#140=FACE_OUTER_BOUND('',#179,.T.);
#141=FACE_OUTER_BOUND('',#184,.T.);
#142=FACE_OUTER_BOUND('',#185,.T.);
#143=FACE_OUTER_BOUND('',#186,.T.);
#144=FACE_OUTER_BOUND('',#187,.T.);
#145=FACE_OUTER_BOUND('',#188,.T.);
#146=FACE_OUTER_BOUND('',#189,.T.);
#147=FACE_OUTER_BOUND('',#190,.T.);
#148=FACE_OUTER_BOUND('',#191,.T.);
#149=FACE_OUTER_BOUND('',#192,.T.);
#150=FACE_OUTER_BOUND('',#194,.T.);
#151=FACE_OUTER_BOUND('',#195,.T.);
#152=FACE_OUTER_BOUND('',#197,.T.);
#153=FACE_OUTER_BOUND('',#198,.T.);
#154=FACE_OUTER_BOUND('',#199,.T.);
#155=FACE_OUTER_BOUND('',#201,.T.);
#156=FACE_OUTER_BOUND('',#202,.T.);
#157=FACE_OUTER_BOUND('',#203,.T.);
#158=FACE_OUTER_BOUND('',#205,.T.);
#159=FACE_OUTER_BOUND('',#206,.T.);
#160=FACE_OUTER_BOUND('',#207,.T.);
#161=FACE_OUTER_BOUND('',#208,.T.);
#162=FACE_OUTER_BOUND('',#209,.T.);
#163=FACE_OUTER_BOUND('',#210,.T.);
#164=FACE_OUTER_BOUND('',#211,.T.);
#165=FACE_OUTER_BOUND('',#212,.T.);
#166=FACE_OUTER_BOUND('',#213,.T.);
#167=FACE_OUTER_BOUND('',#214,.T.);
#168=FACE_OUTER_BOUND('',#215,.T.);
#169=FACE_OUTER_BOUND('',#216,.T.);
#170=FACE_OUTER_BOUND('',#217,.T.);
#171=FACE_OUTER_BOUND('',#218,.T.);
#172=FACE_OUTER_BOUND('',#219,.T.);
#173=FACE_OUTER_BOUND('',#220,.T.);
#174=FACE_OUTER_BOUND('',#221,.T.);
#175=FACE_OUTER_BOUND('',#222,.T.);
#176=FACE_OUTER_BOUND('',#223,.T.);
#177=FACE_OUTER_BOUND('',#224,.T.);
#178=EDGE_LOOP('',(#398,#399,#400,#401));
#179=EDGE_LOOP('',(#402,#403,#404,#405,#406,#407,#408,#409));
#180=EDGE_LOOP('',(#410));
#181=EDGE_LOOP('',(#411));
#182=EDGE_LOOP('',(#412));
#183=EDGE_LOOP('',(#413));
#184=EDGE_LOOP('',(#414,#415,#416,#417));
#185=EDGE_LOOP('',(#418,#419,#420,#421));
#186=EDGE_LOOP('',(#422,#423,#424,#425));
#187=EDGE_LOOP('',(#426,#427,#428,#429));
#188=EDGE_LOOP('',(#430,#431,#432,#433));
#189=EDGE_LOOP('',(#434,#435,#436,#437));
#190=EDGE_LOOP('',(#438,#439,#440,#441));
#191=EDGE_LOOP('',(#442,#443,#444,#445));
#192=EDGE_LOOP('',(#446));
#193=EDGE_LOOP('',(#447));
#194=EDGE_LOOP('',(#448,#449,#450,#451));
#195=EDGE_LOOP('',(#452));
#196=EDGE_LOOP('',(#453));
#197=EDGE_LOOP('',(#454));
#198=EDGE_LOOP('',(#455,#456,#457,#458));
#199=EDGE_LOOP('',(#459));
#200=EDGE_LOOP('',(#460));
#201=EDGE_LOOP('',(#461));
#202=EDGE_LOOP('',(#462,#463,#464,#465));
#203=EDGE_LOOP('',(#466));
#204=EDGE_LOOP('',(#467));
#205=EDGE_LOOP('',(#468));
#206=EDGE_LOOP('',(#469,#470,#471,#472));
#207=EDGE_LOOP('',(#473,#474,#475,#476));
#208=EDGE_LOOP('',(#477,#478,#479,#480));
#209=EDGE_LOOP('',(#481,#482,#483,#484));
#210=EDGE_LOOP('',(#485));
#211=EDGE_LOOP('',(#486,#487,#488,#489));
#212=EDGE_LOOP('',(#490,#491,#492,#493));
#213=EDGE_LOOP('',(#494,#495,#496,#497));
#214=EDGE_LOOP('',(#498,#499,#500,#501));
#215=EDGE_LOOP('',(#502,#503,#504,#505));
#216=EDGE_LOOP('',(#506,#507,#508,#509));
#217=EDGE_LOOP('',(#510,#511,#512,#513));
#218=EDGE_LOOP('',(#514,#515,#516,#517));
#219=EDGE_LOOP('',(#518,#519,#520,#521,#522,#523,#524,#525));
#220=EDGE_LOOP('',(#526,#527,#528,#529));
#221=EDGE_LOOP('',(#530,#531,#532,#533));
#222=EDGE_LOOP('',(#534,#535,#536,#537));
#223=EDGE_LOOP('',(#538,#539,#540,#541));
#224=EDGE_LOOP('',(#542,#543,#544,#545,#546,#547,#548,#549));
#225=EDGE_LOOP('',(#550,#551,#552,#553,#554,#555,#556,#557));
#226=CIRCLE('',#604,2.5);
#227=CIRCLE('',#605,1.5);
#228=CIRCLE('',#606,4.);
#229=CIRCLE('',#608,3.30000117298016);
#230=CIRCLE('',#609,3.30000117298017);
#231=CIRCLE('',#610,3.30000117300015);
#232=CIRCLE('',#611,3.30000117298693);
#233=CIRCLE('',#612,4.);
#234=CIRCLE('',#613,4.);
#235=CIRCLE('',#614,4.);
#236=CIRCLE('',#616,2.5);
#237=CIRCLE('',#618,2.5);
#238=CIRCLE('',#619,1.5);
#239=CIRCLE('',#621,2.5);
#240=CIRCLE('',#623,2.5);
#241=CIRCLE('',#624,1.5);
#242=CIRCLE('',#626,2.5);
#243=CIRCLE('',#628,2.5);
#244=CIRCLE('',#629,1.5);
#245=CIRCLE('',#631,2.5);
#246=CIRCLE('',#633,1.);
#247=CIRCLE('',#634,1.);
#248=CIRCLE('',#637,1.);
#249=CIRCLE('',#638,1.);
#250=CIRCLE('',#642,1.);
#251=CIRCLE('',#643,1.);
#252=CIRCLE('',#647,1.);
#253=CIRCLE('',#648,1.);
#254=CIRCLE('',#653,3.30000117300015);
#255=CIRCLE('',#656,3.30000117298693);
#256=CIRCLE('',#660,3.30000117298016);
#257=CIRCLE('',#663,3.30000117298017);
#258=CIRCLE('',#666,4.50000117300015);
#259=CIRCLE('',#667,4.50000117300015);
#260=CIRCLE('',#670,4.50000117298693);
#261=CIRCLE('',#671,4.50000117298693);
#262=CIRCLE('',#673,4.50000117298016);
#263=CIRCLE('',#674,4.50000117298017);
#264=CIRCLE('',#677,4.50000117298016);
#265=CIRCLE('',#680,4.50000117298017);
#266=VERTEX_POINT('',#884);
#267=VERTEX_POINT('',#886);
#268=VERTEX_POINT('',#890);
#269=VERTEX_POINT('',#891);
#270=VERTEX_POINT('',#893);
#271=VERTEX_POINT('',#895);
#272=VERTEX_POINT('',#897);
#273=VERTEX_POINT('',#899);
#274=VERTEX_POINT('',#901);
#275=VERTEX_POINT('',#903);
#276=VERTEX_POINT('',#906);
#277=VERTEX_POINT('',#908);
#278=VERTEX_POINT('',#910);
#279=VERTEX_POINT('',#913);
#280=VERTEX_POINT('',#917);
#281=VERTEX_POINT('',#921);
#282=VERTEX_POINT('',#925);
#283=VERTEX_POINT('',#929);
#284=VERTEX_POINT('',#933);
#285=VERTEX_POINT('',#937);
#286=VERTEX_POINT('',#941);
#287=VERTEX_POINT('',#943);
#288=VERTEX_POINT('',#948);
#289=VERTEX_POINT('',#950);
#290=VERTEX_POINT('',#956);
#291=VERTEX_POINT('',#958);
#292=VERTEX_POINT('',#964);
#293=VERTEX_POINT('',#966);
#294=VERTEX_POINT('',#972);
#295=VERTEX_POINT('',#973);
#296=VERTEX_POINT('',#978);
#297=VERTEX_POINT('',#982);
#298=VERTEX_POINT('',#986);
#299=VERTEX_POINT('',#991);
#300=VERTEX_POINT('',#995);
#301=VERTEX_POINT('',#999);
#302=VERTEX_POINT('',#1005);
#303=VERTEX_POINT('',#1006);
#304=VERTEX_POINT('',#1008);
#305=VERTEX_POINT('',#1010);
#306=VERTEX_POINT('',#1014);
#307=VERTEX_POINT('',#1016);
#308=VERTEX_POINT('',#1020);
#309=VERTEX_POINT('',#1022);
#310=VERTEX_POINT('',#1026);
#311=VERTEX_POINT('',#1028);
#312=VERTEX_POINT('',#1032);
#313=VERTEX_POINT('',#1033);
#314=VERTEX_POINT('',#1036);
#315=VERTEX_POINT('',#1040);
#316=VERTEX_POINT('',#1044);
#317=VERTEX_POINT('',#1048);
#318=EDGE_CURVE('',#266,#266,#226,.T.);
#319=EDGE_CURVE('',#266,#267,#227,.T.);
#320=EDGE_CURVE('',#267,#267,#228,.T.);
#321=EDGE_CURVE('',#268,#269,#229,.F.);
#322=EDGE_CURVE('',#270,#268,#40,.F.);
#323=EDGE_CURVE('',#271,#270,#230,.F.);
#324=EDGE_CURVE('',#272,#271,#41,.T.);
#325=EDGE_CURVE('',#273,#272,#231,.T.);
#326=EDGE_CURVE('',#274,#273,#42,.T.);
#327=EDGE_CURVE('',#275,#274,#232,.T.);
#328=EDGE_CURVE('',#269,#275,#43,.F.);
#329=EDGE_CURVE('',#276,#276,#233,.T.);
#330=EDGE_CURVE('',#277,#277,#234,.T.);
#331=EDGE_CURVE('',#278,#278,#235,.T.);
#332=EDGE_CURVE('',#279,#279,#236,.T.);
#333=EDGE_CURVE('',#279,#266,#44,.T.);
#334=EDGE_CURVE('',#280,#280,#237,.T.);
#335=EDGE_CURVE('',#280,#276,#238,.T.);
#336=EDGE_CURVE('',#281,#281,#239,.T.);
#337=EDGE_CURVE('',#281,#280,#45,.T.);
#338=EDGE_CURVE('',#282,#282,#240,.T.);
#339=EDGE_CURVE('',#282,#278,#241,.T.);
#340=EDGE_CURVE('',#283,#283,#242,.T.);
#341=EDGE_CURVE('',#283,#282,#46,.T.);
#342=EDGE_CURVE('',#284,#284,#243,.T.);
#343=EDGE_CURVE('',#284,#277,#244,.T.);
#344=EDGE_CURVE('',#285,#285,#245,.T.);
#345=EDGE_CURVE('',#285,#284,#47,.T.);
#346=EDGE_CURVE('',#286,#286,#246,.T.);
#347=EDGE_CURVE('',#286,#287,#48,.T.);
#348=EDGE_CURVE('',#287,#287,#247,.T.);
#349=EDGE_CURVE('',#288,#288,#248,.T.);
#350=EDGE_CURVE('',#288,#289,#49,.T.);
#351=EDGE_CURVE('',#289,#289,#249,.T.);
#352=EDGE_CURVE('',#290,#290,#250,.T.);
#353=EDGE_CURVE('',#290,#291,#50,.T.);
#354=EDGE_CURVE('',#291,#291,#251,.T.);
#355=EDGE_CURVE('',#292,#292,#252,.T.);
#356=EDGE_CURVE('',#292,#293,#51,.T.);
#357=EDGE_CURVE('',#293,#293,#253,.T.);
#358=EDGE_CURVE('',#294,#295,#52,.T.);
#359=EDGE_CURVE('',#272,#294,#53,.T.);
#360=EDGE_CURVE('',#271,#295,#54,.T.);
#361=EDGE_CURVE('',#296,#294,#254,.T.);
#362=EDGE_CURVE('',#273,#296,#55,.T.);
#363=EDGE_CURVE('',#297,#296,#56,.T.);
#364=EDGE_CURVE('',#274,#297,#57,.T.);
#365=EDGE_CURVE('',#298,#297,#255,.T.);
#366=EDGE_CURVE('',#275,#298,#58,.T.);
#367=EDGE_CURVE('',#299,#298,#59,.T.);
#368=EDGE_CURVE('',#299,#269,#60,.T.);
#369=EDGE_CURVE('',#300,#299,#256,.T.);
#370=EDGE_CURVE('',#268,#300,#61,.T.);
#371=EDGE_CURVE('',#301,#300,#62,.T.);
#372=EDGE_CURVE('',#270,#301,#63,.T.);
#373=EDGE_CURVE('',#295,#301,#257,.T.);
#374=EDGE_CURVE('',#302,#303,#64,.T.);
#375=EDGE_CURVE('',#304,#302,#65,.T.);
#376=EDGE_CURVE('',#305,#304,#66,.T.);
#377=EDGE_CURVE('',#305,#303,#67,.T.);
#378=EDGE_CURVE('',#303,#306,#258,.T.);
#379=EDGE_CURVE('',#307,#305,#259,.T.);
#380=EDGE_CURVE('',#307,#306,#68,.T.);
#381=EDGE_CURVE('',#306,#308,#69,.T.);
#382=EDGE_CURVE('',#309,#307,#70,.T.);
#383=EDGE_CURVE('',#309,#308,#71,.T.);
#384=EDGE_CURVE('',#308,#310,#260,.T.);
#385=EDGE_CURVE('',#311,#309,#261,.T.);
#386=EDGE_CURVE('',#311,#310,#72,.T.);
#387=EDGE_CURVE('',#312,#313,#262,.T.);
#388=EDGE_CURVE('',#313,#311,#73,.T.);
#389=EDGE_CURVE('',#304,#314,#263,.T.);
#390=EDGE_CURVE('',#314,#312,#74,.T.);
#391=EDGE_CURVE('',#310,#315,#75,.T.);
#392=EDGE_CURVE('',#315,#313,#76,.T.);
#393=EDGE_CURVE('',#315,#316,#264,.T.);
#394=EDGE_CURVE('',#312,#316,#77,.T.);
#395=EDGE_CURVE('',#316,#317,#78,.T.);
#396=EDGE_CURVE('',#314,#317,#79,.T.);
#397=EDGE_CURVE('',#317,#302,#265,.T.);
#398=ORIENTED_EDGE('',*,*,#318,.T.);
#399=ORIENTED_EDGE('',*,*,#319,.T.);
#400=ORIENTED_EDGE('',*,*,#320,.T.);
#401=ORIENTED_EDGE('',*,*,#319,.F.);
#402=ORIENTED_EDGE('',*,*,#321,.F.);
#403=ORIENTED_EDGE('',*,*,#322,.F.);
#404=ORIENTED_EDGE('',*,*,#323,.F.);
#405=ORIENTED_EDGE('',*,*,#324,.F.);
#406=ORIENTED_EDGE('',*,*,#325,.F.);
#407=ORIENTED_EDGE('',*,*,#326,.F.);
#408=ORIENTED_EDGE('',*,*,#327,.F.);
#409=ORIENTED_EDGE('',*,*,#328,.F.);
#410=ORIENTED_EDGE('',*,*,#329,.F.);
#411=ORIENTED_EDGE('',*,*,#330,.F.);
#412=ORIENTED_EDGE('',*,*,#331,.F.);
#413=ORIENTED_EDGE('',*,*,#320,.F.);
#414=ORIENTED_EDGE('',*,*,#332,.F.);
#415=ORIENTED_EDGE('',*,*,#333,.T.);
#416=ORIENTED_EDGE('',*,*,#318,.F.);
#417=ORIENTED_EDGE('',*,*,#333,.F.);
#418=ORIENTED_EDGE('',*,*,#334,.T.);
#419=ORIENTED_EDGE('',*,*,#335,.T.);
#420=ORIENTED_EDGE('',*,*,#329,.T.);
#421=ORIENTED_EDGE('',*,*,#335,.F.);
#422=ORIENTED_EDGE('',*,*,#336,.F.);
#423=ORIENTED_EDGE('',*,*,#337,.T.);
#424=ORIENTED_EDGE('',*,*,#334,.F.);
#425=ORIENTED_EDGE('',*,*,#337,.F.);
#426=ORIENTED_EDGE('',*,*,#338,.T.);
#427=ORIENTED_EDGE('',*,*,#339,.T.);
#428=ORIENTED_EDGE('',*,*,#331,.T.);
#429=ORIENTED_EDGE('',*,*,#339,.F.);
#430=ORIENTED_EDGE('',*,*,#340,.F.);
#431=ORIENTED_EDGE('',*,*,#341,.T.);
#432=ORIENTED_EDGE('',*,*,#338,.F.);
#433=ORIENTED_EDGE('',*,*,#341,.F.);
#434=ORIENTED_EDGE('',*,*,#342,.T.);
#435=ORIENTED_EDGE('',*,*,#343,.T.);
#436=ORIENTED_EDGE('',*,*,#330,.T.);
#437=ORIENTED_EDGE('',*,*,#343,.F.);
#438=ORIENTED_EDGE('',*,*,#344,.F.);
#439=ORIENTED_EDGE('',*,*,#345,.T.);
#440=ORIENTED_EDGE('',*,*,#342,.F.);
#441=ORIENTED_EDGE('',*,*,#345,.F.);
#442=ORIENTED_EDGE('',*,*,#346,.F.);
#443=ORIENTED_EDGE('',*,*,#347,.T.);
#444=ORIENTED_EDGE('',*,*,#348,.F.);
#445=ORIENTED_EDGE('',*,*,#347,.F.);
#446=ORIENTED_EDGE('',*,*,#344,.T.);
#447=ORIENTED_EDGE('',*,*,#346,.T.);
#448=ORIENTED_EDGE('',*,*,#349,.F.);
#449=ORIENTED_EDGE('',*,*,#350,.T.);
#450=ORIENTED_EDGE('',*,*,#351,.F.);
#451=ORIENTED_EDGE('',*,*,#350,.F.);
#452=ORIENTED_EDGE('',*,*,#340,.T.);
#453=ORIENTED_EDGE('',*,*,#349,.T.);
#454=ORIENTED_EDGE('',*,*,#348,.T.);
#455=ORIENTED_EDGE('',*,*,#352,.F.);
#456=ORIENTED_EDGE('',*,*,#353,.T.);
#457=ORIENTED_EDGE('',*,*,#354,.F.);
#458=ORIENTED_EDGE('',*,*,#353,.F.);
#459=ORIENTED_EDGE('',*,*,#332,.T.);
#460=ORIENTED_EDGE('',*,*,#352,.T.);
#461=ORIENTED_EDGE('',*,*,#351,.T.);
#462=ORIENTED_EDGE('',*,*,#355,.F.);
#463=ORIENTED_EDGE('',*,*,#356,.T.);
#464=ORIENTED_EDGE('',*,*,#357,.F.);
#465=ORIENTED_EDGE('',*,*,#356,.F.);
#466=ORIENTED_EDGE('',*,*,#336,.T.);
#467=ORIENTED_EDGE('',*,*,#355,.T.);
#468=ORIENTED_EDGE('',*,*,#354,.T.);
#469=ORIENTED_EDGE('',*,*,#358,.F.);
#470=ORIENTED_EDGE('',*,*,#359,.F.);
#471=ORIENTED_EDGE('',*,*,#324,.T.);
#472=ORIENTED_EDGE('',*,*,#360,.T.);
#473=ORIENTED_EDGE('',*,*,#361,.F.);
#474=ORIENTED_EDGE('',*,*,#362,.F.);
#475=ORIENTED_EDGE('',*,*,#325,.T.);
#476=ORIENTED_EDGE('',*,*,#359,.T.);
#477=ORIENTED_EDGE('',*,*,#363,.F.);
#478=ORIENTED_EDGE('',*,*,#364,.F.);
#479=ORIENTED_EDGE('',*,*,#326,.T.);
#480=ORIENTED_EDGE('',*,*,#362,.T.);
#481=ORIENTED_EDGE('',*,*,#365,.F.);
#482=ORIENTED_EDGE('',*,*,#366,.F.);
#483=ORIENTED_EDGE('',*,*,#327,.T.);
#484=ORIENTED_EDGE('',*,*,#364,.T.);
#485=ORIENTED_EDGE('',*,*,#357,.T.);
#486=ORIENTED_EDGE('',*,*,#367,.F.);
#487=ORIENTED_EDGE('',*,*,#368,.T.);
#488=ORIENTED_EDGE('',*,*,#328,.T.);
#489=ORIENTED_EDGE('',*,*,#366,.T.);
#490=ORIENTED_EDGE('',*,*,#369,.F.);
#491=ORIENTED_EDGE('',*,*,#370,.F.);
#492=ORIENTED_EDGE('',*,*,#321,.T.);
#493=ORIENTED_EDGE('',*,*,#368,.F.);
#494=ORIENTED_EDGE('',*,*,#371,.F.);
#495=ORIENTED_EDGE('',*,*,#372,.F.);
#496=ORIENTED_EDGE('',*,*,#322,.T.);
#497=ORIENTED_EDGE('',*,*,#370,.T.);
#498=ORIENTED_EDGE('',*,*,#373,.F.);
#499=ORIENTED_EDGE('',*,*,#360,.F.);
#500=ORIENTED_EDGE('',*,*,#323,.T.);
#501=ORIENTED_EDGE('',*,*,#372,.T.);
#502=ORIENTED_EDGE('',*,*,#374,.F.);
#503=ORIENTED_EDGE('',*,*,#375,.F.);
#504=ORIENTED_EDGE('',*,*,#376,.F.);
#505=ORIENTED_EDGE('',*,*,#377,.T.);
#506=ORIENTED_EDGE('',*,*,#378,.F.);
#507=ORIENTED_EDGE('',*,*,#377,.F.);
#508=ORIENTED_EDGE('',*,*,#379,.F.);
#509=ORIENTED_EDGE('',*,*,#380,.T.);
#510=ORIENTED_EDGE('',*,*,#381,.F.);
#511=ORIENTED_EDGE('',*,*,#380,.F.);
#512=ORIENTED_EDGE('',*,*,#382,.F.);
#513=ORIENTED_EDGE('',*,*,#383,.T.);
#514=ORIENTED_EDGE('',*,*,#384,.F.);
#515=ORIENTED_EDGE('',*,*,#383,.F.);
#516=ORIENTED_EDGE('',*,*,#385,.F.);
#517=ORIENTED_EDGE('',*,*,#386,.T.);
#518=ORIENTED_EDGE('',*,*,#387,.T.);
#519=ORIENTED_EDGE('',*,*,#388,.T.);
#520=ORIENTED_EDGE('',*,*,#385,.T.);
#521=ORIENTED_EDGE('',*,*,#382,.T.);
#522=ORIENTED_EDGE('',*,*,#379,.T.);
#523=ORIENTED_EDGE('',*,*,#376,.T.);
#524=ORIENTED_EDGE('',*,*,#389,.T.);
#525=ORIENTED_EDGE('',*,*,#390,.T.);
#526=ORIENTED_EDGE('',*,*,#391,.F.);
#527=ORIENTED_EDGE('',*,*,#386,.F.);
#528=ORIENTED_EDGE('',*,*,#388,.F.);
#529=ORIENTED_EDGE('',*,*,#392,.F.);
#530=ORIENTED_EDGE('',*,*,#393,.F.);
#531=ORIENTED_EDGE('',*,*,#392,.T.);
#532=ORIENTED_EDGE('',*,*,#387,.F.);
#533=ORIENTED_EDGE('',*,*,#394,.T.);
#534=ORIENTED_EDGE('',*,*,#395,.F.);
#535=ORIENTED_EDGE('',*,*,#394,.F.);
#536=ORIENTED_EDGE('',*,*,#390,.F.);
#537=ORIENTED_EDGE('',*,*,#396,.T.);
#538=ORIENTED_EDGE('',*,*,#397,.F.);
#539=ORIENTED_EDGE('',*,*,#396,.F.);
#540=ORIENTED_EDGE('',*,*,#389,.F.);
#541=ORIENTED_EDGE('',*,*,#375,.T.);
#542=ORIENTED_EDGE('',*,*,#391,.T.);
#543=ORIENTED_EDGE('',*,*,#393,.T.);
#544=ORIENTED_EDGE('',*,*,#395,.T.);
#545=ORIENTED_EDGE('',*,*,#397,.T.);
#546=ORIENTED_EDGE('',*,*,#374,.T.);
#547=ORIENTED_EDGE('',*,*,#378,.T.);
#548=ORIENTED_EDGE('',*,*,#381,.T.);
#549=ORIENTED_EDGE('',*,*,#384,.T.);
#550=ORIENTED_EDGE('',*,*,#358,.T.);
#551=ORIENTED_EDGE('',*,*,#373,.T.);
#552=ORIENTED_EDGE('',*,*,#371,.T.);
#553=ORIENTED_EDGE('',*,*,#369,.T.);
#554=ORIENTED_EDGE('',*,*,#367,.T.);
#555=ORIENTED_EDGE('',*,*,#365,.T.);
#556=ORIENTED_EDGE('',*,*,#363,.T.);
#557=ORIENTED_EDGE('',*,*,#361,.T.);
#558=TOROIDAL_SURFACE('',#603,4.,1.5);
#559=TOROIDAL_SURFACE('',#617,4.,1.5);
#560=TOROIDAL_SURFACE('',#622,4.,1.5);
#561=TOROIDAL_SURFACE('',#627,4.,1.5);
#562=ADVANCED_FACE('',(#139),#558,.F.);
#563=ADVANCED_FACE('',(#140,#31,#32,#33,#34),#120,.T.);
#564=ADVANCED_FACE('',(#141),#15,.T.);
#565=ADVANCED_FACE('',(#142),#559,.F.);
#566=ADVANCED_FACE('',(#143),#16,.T.);
#567=ADVANCED_FACE('',(#144),#560,.F.);
#568=ADVANCED_FACE('',(#145),#17,.T.);
#569=ADVANCED_FACE('',(#146),#561,.F.);
#570=ADVANCED_FACE('',(#147),#18,.T.);
#571=ADVANCED_FACE('',(#148),#19,.F.);
#572=ADVANCED_FACE('',(#149,#35),#121,.F.);
#573=ADVANCED_FACE('',(#150),#20,.F.);
#574=ADVANCED_FACE('',(#151,#36),#122,.F.);
#575=ADVANCED_FACE('',(#152),#123,.T.);
#576=ADVANCED_FACE('',(#153),#21,.F.);
#577=ADVANCED_FACE('',(#154,#37),#124,.F.);
#578=ADVANCED_FACE('',(#155),#125,.T.);
#579=ADVANCED_FACE('',(#156),#22,.F.);
#580=ADVANCED_FACE('',(#157,#38),#126,.F.);
#581=ADVANCED_FACE('',(#158),#127,.T.);
#582=ADVANCED_FACE('',(#159),#128,.F.);
#583=ADVANCED_FACE('',(#160),#23,.F.);
#584=ADVANCED_FACE('',(#161),#129,.F.);
#585=ADVANCED_FACE('',(#162),#24,.F.);
#586=ADVANCED_FACE('',(#163),#130,.T.);
#587=ADVANCED_FACE('',(#164),#131,.F.);
#588=ADVANCED_FACE('',(#165),#25,.F.);
#589=ADVANCED_FACE('',(#166),#132,.F.);
#590=ADVANCED_FACE('',(#167),#26,.F.);
#591=ADVANCED_FACE('',(#168),#133,.T.);
#592=ADVANCED_FACE('',(#169),#27,.T.);
#593=ADVANCED_FACE('',(#170),#134,.T.);
#594=ADVANCED_FACE('',(#171),#28,.T.);
#595=ADVANCED_FACE('',(#172),#135,.F.);
#596=ADVANCED_FACE('',(#173),#136,.T.);
#597=ADVANCED_FACE('',(#174),#29,.T.);
#598=ADVANCED_FACE('',(#175),#137,.T.);
#599=ADVANCED_FACE('',(#176),#30,.T.);
#600=ADVANCED_FACE('',(#177,#39),#138,.T.);
#601=CLOSED_SHELL('',(#562,#563,#564,#565,#566,#567,#568,#569,#570,#571,
#572,#573,#574,#575,#576,#577,#578,#579,#580,#581,#582,#583,#584,#585,#586,
#587,#588,#589,#590,#591,#592,#593,#594,#595,#596,#597,#598,#599,#600));
#602=AXIS2_PLACEMENT_3D('',#882,#682,#683);
#603=AXIS2_PLACEMENT_3D('',#883,#684,#685);
#604=AXIS2_PLACEMENT_3D('',#885,#686,#687);
#605=AXIS2_PLACEMENT_3D('',#887,#688,#689);
#606=AXIS2_PLACEMENT_3D('',#888,#690,#691);
#607=AXIS2_PLACEMENT_3D('',#889,#692,#693);
#608=AXIS2_PLACEMENT_3D('',#892,#694,#695);
#609=AXIS2_PLACEMENT_3D('',#896,#697,#698);
#610=AXIS2_PLACEMENT_3D('',#900,#700,#701);
#611=AXIS2_PLACEMENT_3D('',#904,#703,#704);
#612=AXIS2_PLACEMENT_3D('',#907,#706,#707);
#613=AXIS2_PLACEMENT_3D('',#909,#708,#709);
#614=AXIS2_PLACEMENT_3D('',#911,#710,#711);
#615=AXIS2_PLACEMENT_3D('',#912,#712,#713);
#616=AXIS2_PLACEMENT_3D('',#914,#714,#715);
#617=AXIS2_PLACEMENT_3D('',#916,#717,#718);
#618=AXIS2_PLACEMENT_3D('',#918,#719,#720);
#619=AXIS2_PLACEMENT_3D('',#919,#721,#722);
#620=AXIS2_PLACEMENT_3D('',#920,#723,#724);
#621=AXIS2_PLACEMENT_3D('',#922,#725,#726);
#622=AXIS2_PLACEMENT_3D('',#924,#728,#729);
#623=AXIS2_PLACEMENT_3D('',#926,#730,#731);
#624=AXIS2_PLACEMENT_3D('',#927,#732,#733);
#625=AXIS2_PLACEMENT_3D('',#928,#734,#735);
#626=AXIS2_PLACEMENT_3D('',#930,#736,#737);
#627=AXIS2_PLACEMENT_3D('',#932,#739,#740);
#628=AXIS2_PLACEMENT_3D('',#934,#741,#742);
#629=AXIS2_PLACEMENT_3D('',#935,#743,#744);
#630=AXIS2_PLACEMENT_3D('',#936,#745,#746);
#631=AXIS2_PLACEMENT_3D('',#938,#747,#748);
#632=AXIS2_PLACEMENT_3D('',#940,#750,#751);
#633=AXIS2_PLACEMENT_3D('',#942,#752,#753);
#634=AXIS2_PLACEMENT_3D('',#945,#755,#756);
#635=AXIS2_PLACEMENT_3D('',#946,#757,#758);
#636=AXIS2_PLACEMENT_3D('',#947,#759,#760);
#637=AXIS2_PLACEMENT_3D('',#949,#761,#762);
#638=AXIS2_PLACEMENT_3D('',#952,#764,#765);
#639=AXIS2_PLACEMENT_3D('',#953,#766,#767);
#640=AXIS2_PLACEMENT_3D('',#954,#768,#769);
#641=AXIS2_PLACEMENT_3D('',#955,#770,#771);
#642=AXIS2_PLACEMENT_3D('',#957,#772,#773);
#643=AXIS2_PLACEMENT_3D('',#960,#775,#776);
#644=AXIS2_PLACEMENT_3D('',#961,#777,#778);
#645=AXIS2_PLACEMENT_3D('',#962,#779,#780);
#646=AXIS2_PLACEMENT_3D('',#963,#781,#782);
#647=AXIS2_PLACEMENT_3D('',#965,#783,#784);
#648=AXIS2_PLACEMENT_3D('',#968,#786,#787);
#649=AXIS2_PLACEMENT_3D('',#969,#788,#789);
#650=AXIS2_PLACEMENT_3D('',#970,#790,#791);
#651=AXIS2_PLACEMENT_3D('',#971,#792,#793);
#652=AXIS2_PLACEMENT_3D('',#977,#797,#798);
#653=AXIS2_PLACEMENT_3D('',#979,#799,#800);
#654=AXIS2_PLACEMENT_3D('',#981,#802,#803);
#655=AXIS2_PLACEMENT_3D('',#985,#806,#807);
#656=AXIS2_PLACEMENT_3D('',#987,#808,#809);
#657=AXIS2_PLACEMENT_3D('',#989,#811,#812);
#658=AXIS2_PLACEMENT_3D('',#990,#813,#814);
#659=AXIS2_PLACEMENT_3D('',#994,#817,#818);
#660=AXIS2_PLACEMENT_3D('',#996,#819,#820);
#661=AXIS2_PLACEMENT_3D('',#998,#822,#823);
#662=AXIS2_PLACEMENT_3D('',#1002,#826,#827);
#663=AXIS2_PLACEMENT_3D('',#1003,#828,#829);
#664=AXIS2_PLACEMENT_3D('',#1004,#830,#831);
#665=AXIS2_PLACEMENT_3D('',#1013,#836,#837);
#666=AXIS2_PLACEMENT_3D('',#1015,#838,#839);
#667=AXIS2_PLACEMENT_3D('',#1017,#840,#841);
#668=AXIS2_PLACEMENT_3D('',#1019,#843,#844);
#669=AXIS2_PLACEMENT_3D('',#1025,#848,#849);
#670=AXIS2_PLACEMENT_3D('',#1027,#850,#851);
#671=AXIS2_PLACEMENT_3D('',#1029,#852,#853);
#672=AXIS2_PLACEMENT_3D('',#1031,#855,#856);
#673=AXIS2_PLACEMENT_3D('',#1034,#857,#858);
#674=AXIS2_PLACEMENT_3D('',#1037,#860,#861);
#675=AXIS2_PLACEMENT_3D('',#1039,#863,#864);
#676=AXIS2_PLACEMENT_3D('',#1043,#867,#868);
#677=AXIS2_PLACEMENT_3D('',#1045,#869,#870);
#678=AXIS2_PLACEMENT_3D('',#1047,#872,#873);
#679=AXIS2_PLACEMENT_3D('',#1051,#876,#877);
#680=AXIS2_PLACEMENT_3D('',#1052,#878,#879);
#681=AXIS2_PLACEMENT_3D('',#1053,#880,#881);
#682=DIRECTION('axis',(0.,0.,1.));
#683=DIRECTION('refdir',(1.,0.,0.));
#684=DIRECTION('center_axis',(0.,0.,-1.));
#685=DIRECTION('ref_axis',(-1.,0.,0.));
#686=DIRECTION('center_axis',(0.,0.,-1.));
#687=DIRECTION('ref_axis',(-1.,0.,0.));
#688=DIRECTION('center_axis',(0.,-1.,0.));
#689=DIRECTION('ref_axis',(1.,0.,0.));
#690=DIRECTION('center_axis',(0.,0.,1.));
#691=DIRECTION('ref_axis',(-1.,0.,0.));
#692=DIRECTION('center_axis',(0.,0.,1.));
#693=DIRECTION('ref_axis',(-1.,0.,0.));
#694=DIRECTION('center_axis',(0.,0.,1.));
#695=DIRECTION('ref_axis',(-2.60662207029643E-7,0.999999999999966,0.));
#696=DIRECTION('',(-2.72509284230175E-15,-1.,0.));
#697=DIRECTION('center_axis',(0.,0.,1.));
#698=DIRECTION('ref_axis',(-0.999999999999966,-2.60666652854907E-7,0.));
#699=DIRECTION('',(-1.,4.56806303861405E-13,0.));
#700=DIRECTION('center_axis',(0.,0.,-1.));
#701=DIRECTION('ref_axis',(2.60664275496799E-7,-0.999999999999966,0.));
#702=DIRECTION('',(2.97943484091592E-13,-1.,0.));
#703=DIRECTION('center_axis',(0.,0.,-1.));
#704=DIRECTION('ref_axis',(0.999999999999966,2.60662157686018E-7,0.));
#705=DIRECTION('',(-1.,-1.51293117429995E-13,0.));
#706=DIRECTION('center_axis',(0.,0.,1.));
#707=DIRECTION('ref_axis',(-1.,0.,0.));
#708=DIRECTION('center_axis',(0.,0.,1.));
#709=DIRECTION('ref_axis',(-1.,0.,0.));
#710=DIRECTION('center_axis',(0.,0.,1.));
#711=DIRECTION('ref_axis',(-1.,0.,0.));
#712=DIRECTION('center_axis',(0.,0.,1.));
#713=DIRECTION('ref_axis',(-1.,0.,0.));
#714=DIRECTION('center_axis',(0.,0.,1.));
#715=DIRECTION('ref_axis',(-1.,0.,0.));
#716=DIRECTION('',(0.,0.,-1.));
#717=DIRECTION('center_axis',(0.,0.,-1.));
#718=DIRECTION('ref_axis',(-1.,0.,0.));
#719=DIRECTION('center_axis',(0.,0.,-1.));
#720=DIRECTION('ref_axis',(-1.,0.,0.));
#721=DIRECTION('center_axis',(0.,-1.,0.));
#722=DIRECTION('ref_axis',(1.,0.,0.));
#723=DIRECTION('center_axis',(0.,0.,1.));
#724=DIRECTION('ref_axis',(-1.,0.,0.));
#725=DIRECTION('center_axis',(0.,0.,1.));
#726=DIRECTION('ref_axis',(-1.,0.,0.));
#727=DIRECTION('',(0.,0.,-1.));
#728=DIRECTION('center_axis',(0.,0.,-1.));
#729=DIRECTION('ref_axis',(-1.,0.,0.));
#730=DIRECTION('center_axis',(0.,0.,-1.));
#731=DIRECTION('ref_axis',(-1.,0.,0.));
#732=DIRECTION('center_axis',(0.,-1.,0.));
#733=DIRECTION('ref_axis',(1.,0.,0.));
#734=DIRECTION('center_axis',(0.,0.,1.));
#735=DIRECTION('ref_axis',(-1.,0.,0.));
#736=DIRECTION('center_axis',(0.,0.,1.));
#737=DIRECTION('ref_axis',(-1.,0.,0.));
#738=DIRECTION('',(0.,0.,-1.));
#739=DIRECTION('center_axis',(0.,0.,-1.));
#740=DIRECTION('ref_axis',(-1.,0.,0.));
#741=DIRECTION('center_axis',(0.,0.,-1.));
#742=DIRECTION('ref_axis',(-1.,0.,0.));
#743=DIRECTION('center_axis',(0.,-1.,0.));
#744=DIRECTION('ref_axis',(1.,0.,0.));
#745=DIRECTION('center_axis',(0.,0.,1.));
#746=DIRECTION('ref_axis',(-1.,0.,0.));
#747=DIRECTION('center_axis',(0.,0.,1.));
#748=DIRECTION('ref_axis',(-1.,0.,0.));
#749=DIRECTION('',(0.,0.,-1.));
#750=DIRECTION('center_axis',(0.,0.,1.));
#751=DIRECTION('ref_axis',(-1.,0.,0.));
#752=DIRECTION('center_axis',(0.,0.,-1.));
#753=DIRECTION('ref_axis',(-1.,0.,0.));
#754=DIRECTION('',(0.,0.,-1.));
#755=DIRECTION('center_axis',(0.,0.,1.));
#756=DIRECTION('ref_axis',(-1.,0.,0.));
#757=DIRECTION('center_axis',(0.,0.,-1.));
#758=DIRECTION('ref_axis',(-1.,0.,0.));
#759=DIRECTION('center_axis',(0.,0.,1.));
#760=DIRECTION('ref_axis',(-1.,0.,0.));
#761=DIRECTION('center_axis',(0.,0.,-1.));
#762=DIRECTION('ref_axis',(-1.,0.,0.));
#763=DIRECTION('',(0.,0.,-1.));
#764=DIRECTION('center_axis',(0.,0.,1.));
#765=DIRECTION('ref_axis',(-1.,0.,0.));
#766=DIRECTION('center_axis',(0.,0.,-1.));
#767=DIRECTION('ref_axis',(-1.,0.,0.));
#768=DIRECTION('center_axis',(0.,0.,1.));
#769=DIRECTION('ref_axis',(-1.,0.,0.));
#770=DIRECTION('center_axis',(0.,0.,1.));
#771=DIRECTION('ref_axis',(-1.,0.,0.));
#772=DIRECTION('center_axis',(0.,0.,-1.));
#773=DIRECTION('ref_axis',(-1.,0.,0.));
#774=DIRECTION('',(0.,0.,-1.));
#775=DIRECTION('center_axis',(0.,0.,1.));
#776=DIRECTION('ref_axis',(-1.,0.,0.));
#777=DIRECTION('center_axis',(0.,0.,-1.));
#778=DIRECTION('ref_axis',(-1.,0.,0.));
#779=DIRECTION('center_axis',(0.,0.,1.));
#780=DIRECTION('ref_axis',(-1.,0.,0.));
#781=DIRECTION('center_axis',(0.,0.,1.));
#782=DIRECTION('ref_axis',(-1.,0.,0.));
#783=DIRECTION('center_axis',(0.,0.,-1.));
#784=DIRECTION('ref_axis',(-1.,0.,0.));
#785=DIRECTION('',(0.,0.,-1.));
#786=DIRECTION('center_axis',(0.,0.,1.));
#787=DIRECTION('ref_axis',(-1.,0.,0.));
#788=DIRECTION('center_axis',(0.,0.,-1.));
#789=DIRECTION('ref_axis',(-1.,0.,0.));
#790=DIRECTION('center_axis',(0.,0.,1.));
#791=DIRECTION('ref_axis',(-1.,0.,0.));
#792=DIRECTION('center_axis',(-4.56806303861405E-13,-1.,0.));
#793=DIRECTION('ref_axis',(1.,-4.56806303861405E-13,0.));
#794=DIRECTION('',(-1.,4.56806303861405E-13,0.));
#795=DIRECTION('',(0.,0.,1.));
#796=DIRECTION('',(0.,0.,1.));
#797=DIRECTION('center_axis',(0.,0.,1.));
#798=DIRECTION('ref_axis',(2.60664275496799E-7,-0.999999999999966,0.));
#799=DIRECTION('center_axis',(0.,0.,-1.));
#800=DIRECTION('ref_axis',(2.60664275496799E-7,-0.999999999999966,0.));
#801=DIRECTION('',(0.,0.,1.));
#802=DIRECTION('center_axis',(1.,2.97943484091592E-13,0.));
#803=DIRECTION('ref_axis',(-2.97943484091592E-13,1.,0.));
#804=DIRECTION('',(2.97943484091592E-13,-1.,0.));
#805=DIRECTION('',(0.,0.,1.));
#806=DIRECTION('center_axis',(0.,0.,1.));
#807=DIRECTION('ref_axis',(0.999999999999966,2.60662157686018E-7,0.));
#808=DIRECTION('center_axis',(0.,0.,-1.));
#809=DIRECTION('ref_axis',(0.999999999999966,2.60662157686018E-7,0.));
#810=DIRECTION('',(0.,0.,1.));
#811=DIRECTION('center_axis',(0.,0.,1.));
#812=DIRECTION('ref_axis',(-1.,0.,0.));
#813=DIRECTION('center_axis',(-1.51293117429995E-13,1.,0.));
#814=DIRECTION('ref_axis',(-1.,-1.51293117429995E-13,0.));
#815=DIRECTION('',(1.,1.51293117429995E-13,0.));
#816=DIRECTION('',(0.,0.,-1.));
#817=DIRECTION('center_axis',(0.,0.,1.));
#818=DIRECTION('ref_axis',(-2.60662207029643E-7,0.999999999999966,0.));
#819=DIRECTION('center_axis',(0.,0.,-1.));
#820=DIRECTION('ref_axis',(-2.60662207029643E-7,0.999999999999966,0.));
#821=DIRECTION('',(0.,0.,1.));
#822=DIRECTION('center_axis',(-1.,2.72509284230175E-15,0.));
#823=DIRECTION('ref_axis',(-2.72509284230175E-15,-1.,0.));
#824=DIRECTION('',(2.72509284230175E-15,1.,0.));
#825=DIRECTION('',(0.,0.,1.));
#826=DIRECTION('center_axis',(0.,0.,1.));
#827=DIRECTION('ref_axis',(-0.999999999999966,-2.60666652854907E-7,0.));
#828=DIRECTION('center_axis',(0.,0.,-1.));
#829=DIRECTION('ref_axis',(-0.999999999999966,-2.60666652854907E-7,0.));
#830=DIRECTION('center_axis',(-4.56806303861405E-13,-1.,0.));
#831=DIRECTION('ref_axis',(1.,-4.56806303861405E-13,0.));
#832=DIRECTION('',(1.,-4.56806303861405E-13,0.));
#833=DIRECTION('',(0.,0.,1.));
#834=DIRECTION('',(-1.,4.56806303861405E-13,0.));
#835=DIRECTION('',(0.,0.,1.));
#836=DIRECTION('center_axis',(0.,0.,1.));
#837=DIRECTION('ref_axis',(2.60664275496799E-7,-0.999999999999966,0.));
#838=DIRECTION('center_axis',(0.,0.,1.));
#839=DIRECTION('ref_axis',(2.60664275496799E-7,-0.999999999999966,0.));
#840=DIRECTION('center_axis',(0.,0.,-1.));
#841=DIRECTION('ref_axis',(2.60664275496799E-7,-0.999999999999966,0.));
#842=DIRECTION('',(0.,0.,1.));
#843=DIRECTION('center_axis',(1.,2.97943484091592E-13,0.));
#844=DIRECTION('ref_axis',(-2.97943484091592E-13,1.,0.));
#845=DIRECTION('',(-2.97943484091592E-13,1.,0.));
#846=DIRECTION('',(2.97943484091592E-13,-1.,0.));
#847=DIRECTION('',(0.,0.,1.));
#848=DIRECTION('center_axis',(0.,0.,1.));
#849=DIRECTION('ref_axis',(0.999999999999966,2.60662157686018E-7,0.));
#850=DIRECTION('center_axis',(0.,0.,1.));
#851=DIRECTION('ref_axis',(0.999999999999966,2.60662157686018E-7,0.));
#852=DIRECTION('center_axis',(0.,0.,-1.));
#853=DIRECTION('ref_axis',(0.999999999999966,2.60662157686018E-7,0.));
#854=DIRECTION('',(0.,0.,1.));
#855=DIRECTION('center_axis',(0.,0.,1.));
#856=DIRECTION('ref_axis',(-1.,0.,0.));
#857=DIRECTION('center_axis',(0.,0.,-1.));
#858=DIRECTION('ref_axis',(-2.60662207029643E-7,0.999999999999966,0.));
#859=DIRECTION('',(1.,1.51293117429995E-13,0.));
#860=DIRECTION('center_axis',(0.,0.,-1.));
#861=DIRECTION('ref_axis',(-0.999999999999966,-2.60666652854907E-7,0.));
#862=DIRECTION('',(2.72509284230175E-15,1.,0.));
#863=DIRECTION('center_axis',(-1.51293117429995E-13,1.,0.));
#864=DIRECTION('ref_axis',(-1.,-1.51293117429995E-13,0.));
#865=DIRECTION('',(-1.,-1.51293117429995E-13,0.));
#866=DIRECTION('',(0.,0.,-1.));
#867=DIRECTION('center_axis',(0.,0.,1.));
#868=DIRECTION('ref_axis',(-2.60662207029643E-7,0.999999999999966,0.));
#869=DIRECTION('center_axis',(0.,0.,1.));
#870=DIRECTION('ref_axis',(-2.60662207029643E-7,0.999999999999966,0.));
#871=DIRECTION('',(0.,0.,1.));
#872=DIRECTION('center_axis',(-1.,2.72509284230175E-15,0.));
#873=DIRECTION('ref_axis',(-2.72509284230175E-15,-1.,0.));
#874=DIRECTION('',(-2.72509284230175E-15,-1.,0.));
#875=DIRECTION('',(0.,0.,1.));
#876=DIRECTION('center_axis',(0.,0.,1.));
#877=DIRECTION('ref_axis',(-0.999999999999966,-2.60666652854907E-7,0.));
#878=DIRECTION('center_axis',(0.,0.,1.));
#879=DIRECTION('ref_axis',(-0.999999999999966,-2.60666652854907E-7,0.));
#880=DIRECTION('center_axis',(0.,0.,1.));
#881=DIRECTION('ref_axis',(1.,0.,0.));
#882=CARTESIAN_POINT('',(0.,0.,0.));
#883=CARTESIAN_POINT('Origin',(22.,-20.,-1.824));
#884=CARTESIAN_POINT('',(24.5,-20.,-1.824));
#885=CARTESIAN_POINT('Origin',(22.,-20.,-1.824));
#886=CARTESIAN_POINT('',(26.,-20.,-3.324));
#887=CARTESIAN_POINT('Origin',(26.,-20.,-1.824));
#888=CARTESIAN_POINT('Origin',(22.,-20.,-3.324));
#889=CARTESIAN_POINT('Origin',(1.00000000000496,1.00000000000333,-3.324));
#890=CARTESIAN_POINT('',(-24.2999999999998,23.0000005864898,-3.324));
#891=CARTESIAN_POINT('',(-21.,26.3,-3.324));
#892=CARTESIAN_POINT('Origin',(-20.99999882702,22.99999882702,-3.324));
#893=CARTESIAN_POINT('',(-24.3,-21.0000000000003,-3.324));
#894=CARTESIAN_POINT('',(-24.2999999999999,12.0000002932466,-3.324));
#895=CARTESIAN_POINT('',(-21.0000005864892,-24.2999999999799,-3.324));
#896=CARTESIAN_POINT('Origin',(-20.99999882702,-20.999998827,-3.324));
#897=CARTESIAN_POINT('',(23.0000000000001,-24.3,-3.324));
#898=CARTESIAN_POINT('',(-10.0000002932479,-24.2999999999849,-3.324));
#899=CARTESIAN_POINT('',(26.3000000000099,-21.0000005865001,-3.324));
#900=CARTESIAN_POINT('Origin',(22.99999882701,-20.999998827,-3.324));
#901=CARTESIAN_POINT('',(26.2999999999968,22.9999999999996,-3.324));
#902=CARTESIAN_POINT('',(26.3000000000066,-10.0000002932446,-3.324));
#903=CARTESIAN_POINT('',(23.000000586495,26.3000000000067,-3.324));
#904=CARTESIAN_POINT('Origin',(22.99999882701,22.99999882702,-3.324));
#905=CARTESIAN_POINT('',(12.000000293248,26.300000000005,-3.324));
#906=CARTESIAN_POINT('',(26.,22.,-3.324));
#907=CARTESIAN_POINT('Origin',(22.,22.,-3.324));
#908=CARTESIAN_POINT('',(-16.,-20.,-3.324));
#909=CARTESIAN_POINT('Origin',(-20.,-20.,-3.324));
#910=CARTESIAN_POINT('',(-16.,22.,-3.324));
#911=CARTESIAN_POINT('Origin',(-20.,22.,-3.324));
#912=CARTESIAN_POINT('Origin',(22.,-20.,-3.324));
#913=CARTESIAN_POINT('',(24.5,-20.,0.));
#914=CARTESIAN_POINT('Origin',(22.,-20.,0.));
#915=CARTESIAN_POINT('',(24.5,-20.,-3.324));
#916=CARTESIAN_POINT('Origin',(22.,22.,-1.824));
#917=CARTESIAN_POINT('',(24.5,22.,-1.824));
#918=CARTESIAN_POINT('Origin',(22.,22.,-1.824));
#919=CARTESIAN_POINT('Origin',(26.,22.,-1.824));
#920=CARTESIAN_POINT('Origin',(22.,22.,-3.324));
#921=CARTESIAN_POINT('',(24.5,22.,0.));
#922=CARTESIAN_POINT('Origin',(22.,22.,0.));
#923=CARTESIAN_POINT('',(24.5,22.,-3.324));
#924=CARTESIAN_POINT('Origin',(-20.,22.,-1.824));
#925=CARTESIAN_POINT('',(-17.5,22.,-1.824));
#926=CARTESIAN_POINT('Origin',(-20.,22.,-1.824));
#927=CARTESIAN_POINT('Origin',(-16.,22.,-1.824));
#928=CARTESIAN_POINT('Origin',(-20.,22.,-3.324));
#929=CARTESIAN_POINT('',(-17.5,22.,0.));
#930=CARTESIAN_POINT('Origin',(-20.,22.,0.));
#931=CARTESIAN_POINT('',(-17.5,22.,-3.324));
#932=CARTESIAN_POINT('Origin',(-20.,-20.,-1.824));
#933=CARTESIAN_POINT('',(-17.5,-20.,-1.824));
#934=CARTESIAN_POINT('Origin',(-20.,-20.,-1.824));
#935=CARTESIAN_POINT('Origin',(-16.,-20.,-1.824));
#936=CARTESIAN_POINT('Origin',(-20.,-20.,-3.324));
#937=CARTESIAN_POINT('',(-17.5,-20.,0.));
#938=CARTESIAN_POINT('Origin',(-20.,-20.,0.));
#939=CARTESIAN_POINT('',(-17.5,-20.,-3.324));
#940=CARTESIAN_POINT('Origin',(-20.,-20.,-3.324));
#941=CARTESIAN_POINT('',(-19.,-20.,0.));
#942=CARTESIAN_POINT('Origin',(-20.,-20.,0.));
#943=CARTESIAN_POINT('',(-19.,-20.,-3.324));
#944=CARTESIAN_POINT('',(-19.,-20.,-3.324));
#945=CARTESIAN_POINT('Origin',(-20.,-20.,-3.324));
#946=CARTESIAN_POINT('Origin',(1.00000000000001,0.999999999999996,0.));
#947=CARTESIAN_POINT('Origin',(-20.,22.,-3.324));
#948=CARTESIAN_POINT('',(-19.,22.,0.));
#949=CARTESIAN_POINT('Origin',(-20.,22.,0.));
#950=CARTESIAN_POINT('',(-19.,22.,-3.324));
#951=CARTESIAN_POINT('',(-19.,22.,-3.324));
#952=CARTESIAN_POINT('Origin',(-20.,22.,-3.324));
#953=CARTESIAN_POINT('Origin',(1.00000000000001,0.999999999999996,0.));
#954=CARTESIAN_POINT('Origin',(1.00000000000496,1.00000000000333,-3.324));
#955=CARTESIAN_POINT('Origin',(22.,-20.,-3.324));
#956=CARTESIAN_POINT('',(23.,-20.,0.));
#957=CARTESIAN_POINT('Origin',(22.,-20.,0.));
#958=CARTESIAN_POINT('',(23.,-20.,-3.324));
#959=CARTESIAN_POINT('',(23.,-20.,-3.324));
#960=CARTESIAN_POINT('Origin',(22.,-20.,-3.324));
#961=CARTESIAN_POINT('Origin',(1.00000000000001,0.999999999999996,0.));
#962=CARTESIAN_POINT('Origin',(1.00000000000496,1.00000000000333,-3.324));
#963=CARTESIAN_POINT('Origin',(22.,22.,-3.324));
#964=CARTESIAN_POINT('',(23.,22.,0.));
#965=CARTESIAN_POINT('Origin',(22.,22.,0.));
#966=CARTESIAN_POINT('',(23.,22.,-3.324));
#967=CARTESIAN_POINT('',(23.,22.,-3.324));
#968=CARTESIAN_POINT('Origin',(22.,22.,-3.324));
#969=CARTESIAN_POINT('Origin',(1.00000000000001,0.999999999999996,0.));
#970=CARTESIAN_POINT('Origin',(1.00000000000496,1.00000000000333,-3.324));
#971=CARTESIAN_POINT('Origin',(-21.0000005864892,-24.2999999999799,1.476));
#972=CARTESIAN_POINT('',(23.0000000000001,-24.3,0.));
#973=CARTESIAN_POINT('',(-21.0000005864892,-24.2999999999799,0.));
#974=CARTESIAN_POINT('',(-10.0000002932479,-24.2999999999849,0.));
#975=CARTESIAN_POINT('',(23.0000000000001,-24.3,1.476));
#976=CARTESIAN_POINT('',(-21.0000005864892,-24.2999999999799,1.476));
#977=CARTESIAN_POINT('Origin',(22.99999882701,-20.999998827,1.476));
#978=CARTESIAN_POINT('',(26.3000000000099,-21.0000005865001,0.));
#979=CARTESIAN_POINT('Origin',(22.99999882701,-20.999998827,0.));
#980=CARTESIAN_POINT('',(26.3000000000099,-21.0000005865001,1.476));
#981=CARTESIAN_POINT('Origin',(26.3000000000099,-21.0000005865001,1.476));
#982=CARTESIAN_POINT('',(26.2999999999968,22.9999999999996,0.));
#983=CARTESIAN_POINT('',(26.3000000000066,-10.0000002932446,0.));
#984=CARTESIAN_POINT('',(26.2999999999968,22.9999999999996,1.476));
#985=CARTESIAN_POINT('Origin',(22.99999882701,22.99999882702,1.476));
#986=CARTESIAN_POINT('',(23.000000586495,26.3000000000067,0.));
#987=CARTESIAN_POINT('Origin',(22.99999882701,22.99999882702,0.));
#988=CARTESIAN_POINT('',(23.000000586495,26.3000000000067,1.476));
#989=CARTESIAN_POINT('Origin',(1.00000000000496,1.00000000000333,-3.324));
#990=CARTESIAN_POINT('Origin',(23.000000586495,26.3000000000067,1.476));
#991=CARTESIAN_POINT('',(-21.,26.3,0.));
#992=CARTESIAN_POINT('',(12.000000293248,26.300000000005,0.));
#993=CARTESIAN_POINT('',(-21.,26.3,1.476));
#994=CARTESIAN_POINT('Origin',(-20.99999882702,22.99999882702,1.476));
#995=CARTESIAN_POINT('',(-24.2999999999998,23.0000005864898,0.));
#996=CARTESIAN_POINT('Origin',(-20.99999882702,22.99999882702,0.));
#997=CARTESIAN_POINT('',(-24.2999999999998,23.0000005864898,1.476));
#998=CARTESIAN_POINT('Origin',(-24.2999999999999,23.0000005864898,1.476));
#999=CARTESIAN_POINT('',(-24.3,-21.0000000000003,0.));
#1000=CARTESIAN_POINT('',(-24.2999999999999,12.0000002932466,0.));
#1001=CARTESIAN_POINT('',(-24.3,-21.0000000000003,1.476));
#1002=CARTESIAN_POINT('Origin',(-20.99999882702,-20.999998827,1.476));
#1003=CARTESIAN_POINT('Origin',(-20.99999882702,-20.999998827,0.));
#1004=CARTESIAN_POINT('Origin',(-21.0000005864898,-25.4999999999799,1.476));
#1005=CARTESIAN_POINT('',(-21.0000005864898,-25.4999999999799,0.));
#1006=CARTESIAN_POINT('',(22.9999999999996,-25.5,0.));
#1007=CARTESIAN_POINT('',(-10.0000002932485,-25.4999999999849,0.));
#1008=CARTESIAN_POINT('',(-21.0000005864898,-25.4999999999799,-4.524));
#1009=CARTESIAN_POINT('',(-21.0000005864898,-25.4999999999799,1.476));
#1010=CARTESIAN_POINT('',(22.9999999999996,-25.5,-4.524));
#1011=CARTESIAN_POINT('',(-21.0000005864898,-25.4999999999799,-4.524));
#1012=CARTESIAN_POINT('',(22.9999999999996,-25.5,1.476));
#1013=CARTESIAN_POINT('Origin',(22.99999882701,-20.999998827,1.476));
#1014=CARTESIAN_POINT('',(27.5000000000099,-21.0000005864998,0.));
#1015=CARTESIAN_POINT('Origin',(22.99999882701,-20.999998827,0.));
#1016=CARTESIAN_POINT('',(27.5000000000099,-21.0000005864998,-4.524));
#1017=CARTESIAN_POINT('Origin',(22.99999882701,-20.999998827,-4.524));
#1018=CARTESIAN_POINT('',(27.5000000000099,-21.0000005864998,1.476));
#1019=CARTESIAN_POINT('Origin',(27.5000000000099,-21.0000005864998,1.476));
#1020=CARTESIAN_POINT('',(27.4999999999968,23.,0.));
#1021=CARTESIAN_POINT('',(27.5000000000066,-10.0000002932443,0.));
#1022=CARTESIAN_POINT('',(27.4999999999968,23.,-4.524));
#1023=CARTESIAN_POINT('',(27.5000000000099,-21.0000005864998,-4.524));
#1024=CARTESIAN_POINT('',(27.4999999999968,23.,1.476));
#1025=CARTESIAN_POINT('Origin',(22.99999882701,22.99999882702,1.476));
#1026=CARTESIAN_POINT('',(23.0000005864948,27.5000000000067,0.));
#1027=CARTESIAN_POINT('Origin',(22.99999882701,22.99999882702,0.));
#1028=CARTESIAN_POINT('',(23.0000005864948,27.5000000000067,-4.524));
#1029=CARTESIAN_POINT('Origin',(22.99999882701,22.99999882702,-4.524));
#1030=CARTESIAN_POINT('',(23.0000005864948,27.5000000000067,1.476));
#1031=CARTESIAN_POINT('Origin',(1.00000000000496,1.00000000000333,-4.524));
#1032=CARTESIAN_POINT('',(-25.4999999999998,23.0000005864898,-4.524));
#1033=CARTESIAN_POINT('',(-21.0000000000002,27.5,-4.524));
#1034=CARTESIAN_POINT('Origin',(-20.99999882702,22.99999882702,-4.524));
#1035=CARTESIAN_POINT('',(23.0000005864948,27.5000000000067,-4.524));
#1036=CARTESIAN_POINT('',(-25.5,-21.0000000000002,-4.524));
#1037=CARTESIAN_POINT('Origin',(-20.99999882702,-20.999998827,-4.524));
#1038=CARTESIAN_POINT('',(-25.4999999999999,23.0000005864898,-4.524));
#1039=CARTESIAN_POINT('Origin',(23.0000005864948,27.5000000000067,1.476));
#1040=CARTESIAN_POINT('',(-21.0000000000002,27.5,0.));
#1041=CARTESIAN_POINT('',(12.0000002932479,27.500000000005,0.));
#1042=CARTESIAN_POINT('',(-21.0000000000002,27.5,1.476));
#1043=CARTESIAN_POINT('Origin',(-20.99999882702,22.99999882702,1.476));
#1044=CARTESIAN_POINT('',(-25.4999999999998,23.0000005864898,0.));
#1045=CARTESIAN_POINT('Origin',(-20.99999882702,22.99999882702,0.));
#1046=CARTESIAN_POINT('',(-25.4999999999998,23.0000005864898,1.476));
#1047=CARTESIAN_POINT('Origin',(-25.4999999999999,23.0000005864898,1.476));
#1048=CARTESIAN_POINT('',(-25.5,-21.0000000000002,0.));
#1049=CARTESIAN_POINT('',(-25.4999999999999,12.0000002932466,0.));
#1050=CARTESIAN_POINT('',(-25.5,-21.0000000000002,1.476));
#1051=CARTESIAN_POINT('Origin',(-20.99999882702,-20.999998827,1.476));
#1052=CARTESIAN_POINT('Origin',(-20.99999882702,-20.999998827,0.));
#1053=CARTESIAN_POINT('Origin',(1.00000000000496,1.00000000000332,0.));
#1054=UNCERTAINTY_MEASURE_WITH_UNIT(LENGTH_MEASURE(0.01),#1058,
'DISTANCE_ACCURACY_VALUE',
'Maximum model space distance between geometric entities at asserted c
onnectivities');
#1055=UNCERTAINTY_MEASURE_WITH_UNIT(LENGTH_MEASURE(0.01),#1058,
'DISTANCE_ACCURACY_VALUE',
'Maximum model space distance between geometric entities at asserted c
onnectivities');
#1056=(
GEOMETRIC_REPRESENTATION_CONTEXT(3)
GLOBAL_UNCERTAINTY_ASSIGNED_CONTEXT((#1054))
GLOBAL_UNIT_ASSIGNED_CONTEXT((#1058,#1059,#1060))
REPRESENTATION_CONTEXT('','3D')
);
#1057=(
GEOMETRIC_REPRESENTATION_CONTEXT(3)
GLOBAL_UNCERTAINTY_ASSIGNED_CONTEXT((#1055))
GLOBAL_UNIT_ASSIGNED_CONTEXT((#1058,#1059,#1060))
REPRESENTATION_CONTEXT('','3D')
);
#1058=(
LENGTH_UNIT()
NAMED_UNIT(*)
SI_UNIT(.MILLI.,.METRE.)
);
#1059=(
NAMED_UNIT(*)
PLANE_ANGLE_UNIT()
SI_UNIT($,.RADIAN.)
);
#1060=(
NAMED_UNIT(*)
SI_UNIT($,.STERADIAN.)
SOLID_ANGLE_UNIT()
);
#1061=SHAPE_DEFINITION_REPRESENTATION(#1062,#1063);
#1062=PRODUCT_DEFINITION_SHAPE('',$,#1065);
#1063=SHAPE_REPRESENTATION('',(#602),#1056);
#1064=PRODUCT_DEFINITION_CONTEXT('part definition',#1069,'design');
#1065=PRODUCT_DEFINITION('Case_IMU_Sensor','Case_IMU_Sensor v3',#1066,#1064);
#1066=PRODUCT_DEFINITION_FORMATION('',$,#1071);
#1067=PRODUCT_RELATED_PRODUCT_CATEGORY('Case_IMU_Sensor v3',
'Case_IMU_Sensor v3',(#1071));
#1068=APPLICATION_PROTOCOL_DEFINITION('international standard',
'automotive_design',2009,#1069);
#1069=APPLICATION_CONTEXT(
'Core Data for Automotive Mechanical Design Process');
#1070=PRODUCT_CONTEXT('part definition',#1069,'mechanical');
#1071=PRODUCT('Case_IMU_Sensor','Case_IMU_Sensor v3',$,(#1070));
#1072=PRESENTATION_STYLE_ASSIGNMENT((#1073));
#1073=SURFACE_STYLE_USAGE(.BOTH.,#1074);
#1074=SURFACE_SIDE_STYLE('',(#1075));
#1075=SURFACE_STYLE_FILL_AREA(#1076);
#1076=FILL_AREA_STYLE('Steel - Satin',(#1077));
#1077=FILL_AREA_STYLE_COLOUR('Steel - Satin',#1078);
#1078=COLOUR_RGB('Steel - Satin',0.627450980392157,0.627450980392157,0.627450980392157);
ENDSEC;
END-ISO-10303-21;
